<svg xmlns="http://www.w3.org/2000/svg" viewBox="0 0 32 32"><g fill="none" fill-rule="evenodd"><path fill="#0674c8" d="M0 0h32v32H0z"/><path fill="#f2f2f2" d="M4.61 19.853c1.06 0 1.864-.804 1.864-1.8 0-.997-.804-1.8-1.865-1.8h-.932v3.6zm-1.415-4.05h1.414c1.318 0 2.347 1.028 2.347 2.25s-1.029 2.25-2.347 2.25H3.195zm4.398 0h3.086v.45H8.075v1.478h2.09v.45h-2.09v1.672h2.668v.45h-3.15zm4.821.45h-1.415v-.45h3.311v.45h-1.414v4.05h-.482zm4.339 1.8c.546 0 .9-.354.9-.9 0-.547-.354-.9-.9-.9h-1.318v1.8zm-1.8-2.25h1.8c.803 0 1.382.578 1.382 1.35 0 1.028-.932 1.286-.932 1.286l1.06 1.864h-.546l-.996-1.8h-1.286v1.8h-.482zm8.035 2.25c0-1.06-.804-1.864-1.832-1.864-1.029 0-1.832.803-1.832 1.864 0 1.06.803 1.864 1.832 1.864 1.028 0 1.832-.803 1.832-1.864m-1.832-2.315a2.305 2.305 0 0 1 2.314 2.315 2.305 2.305 0 0 1-2.314 2.314 2.305 2.305 0 0 1-2.314-2.314 2.305 2.305 0 0 1 2.314-2.315m3.214 4.565h.482v-4.5h-.482zm2.539-4.05h-1.415v-.45h3.311v.45h-1.414v4.05h-.482zM8.555 15.176c.895 0 1.342-.664 1.342-.664l-.447-.474s-.313.474-.895.474c-.559 0-1.006-.474-1.006-1.066 0-.592.447-1.066 1.006-1.066s.873.474.873.474l.447-.474s-.447-.664-1.32-.664c-.962 0-1.7.782-1.7 1.73s.738 1.73 1.7 1.73m2.957-.688h-.693v-.805h.693c.269 0 .425.166.425.403 0 .237-.156.402-.425.402zm-.693-2.085h.604c.224 0 .358.142.358.332s-.134.332-.358.332h-.604zm1.812 1.754c0-.64-.582-.806-.582-.806s.425-.166.425-.687c0-.474-.38-.877-1.006-.877h-1.32v3.317h1.409c.671 0 1.074-.426 1.074-.947zm1.266.379c-.47 0-.738-.356-.738-.356l-.448.474s.403.521 1.208.521c.738 0 1.186-.473 1.186-1.018 0-1.161-1.566-.9-1.566-1.47 0-.189.134-.331.47-.331.358 0 .581.284.581.284l.448-.474s-.358-.45-1.052-.45c-.716 0-1.14.45-1.14.972 0 1.16 1.565.9 1.565 1.469 0 .213-.156.379-.514.379m2.997-1.493 1.521 2.061h.604v-3.317h-.671v2.062l-1.521-2.062h-.604v3.317h.671zm3.252.687h1.298v-.64h-1.298v-.64h1.656v-.663h-2.327v3.317h2.371v-.663h-1.7zm5.816-1.943-.648 2.228h-.023l-.648-2.228h-.627l-.648 2.228h-.023l-.649-2.228h-.693l1.029 3.317h.649l.635-2.156h.027l.635 2.156h.649l1.029-3.317zm1.472.9c0-.189.134-.331.47-.331.358 0 .581.284.581.284l.448-.474s-.358-.45-1.051-.45c-.716 0-1.141.45-1.141.972 0 1.16 1.566.9 1.566 1.469 0 .213-.157.379-.515.379-.47 0-.738-.356-.738-.356l-.448.474s.403.521 1.208.521c.739 0 1.186-.473 1.186-1.018 0-1.161-1.566-.9-1.566-1.47m-21.655.756a.927.927 0 0 1-.282.68.927.927 0 0 1-.68.283.927.927 0 0 1-.681-.282.927.927 0 0 1-.282-.68.92.92 0 0 1 .282-.679.931.931 0 0 1 .68-.28c.266 0 .492.094.68.28a.92.92 0 0 1 .283.678m.74.003a1.793 1.793 0 0 0-.66-.765 1.823 1.823 0 0 0-1.045-.319c-.383 0-.733.106-1.05.319a1.802 1.802 0 0 0-.655.765c.143.313.36.57.655.77.317.209.667.313 1.05.313s.731-.104 1.045-.313c.297-.2.517-.457.66-.77m.109-.003c0 .503-.177.931-.531 1.286s-.781.53-1.28.53c-.5 0-.928-.176-1.284-.53A1.747 1.747 0 0 1 3 13.443c0-.499.178-.926.533-1.28a1.753 1.753 0 0 1 1.283-.531c.5 0 .926.177 1.28.531s.532.781.532 1.28"/></g></svg>