<svg width="260" height="22" viewBox="0 0 260 22" fill="none" xmlns="http://www.w3.org/2000/svg">
<g clip-path="url(#clip0_109_4566)">
<path d="M240.595 21.0342C237.836 21.0342 235.884 20.3612 235.884 17.7947V10.0684H239.584C241.637 10.0684 241.232 12.9049 241.73 12.9049H241.942V6.47528H241.73C241.236 6.47528 241.514 9.10262 239.584 9.10262H235.88V1.03799C235.88 1.03799 239.083 0.787055 241.34 1.14447C243.597 1.50188 242.953 5.26618 244.145 5.26618H244.238C244.238 5.26618 244.238 0.97339 244.238 0.406849C244.238 -0.159691 243.748 0.311792 242.972 0.406849C242.625 0.558941 231.995 0.509511 229.714 0.406849C229.737 0.610945 229.83 0.801313 229.977 0.946744C230.143 1.07982 232.593 0.566556 232.593 3.36504V18.5133C232.593 21.3232 229.691 20.3422 229.691 21.1749C229.691 21.1749 229.691 21.3384 229.691 21.4981C231.451 21.1597 243.848 21.654 244.543 21.3688C245.237 21.0836 246.128 16.0913 246.128 16.0913H245.793C244.732 16.1065 245.037 21.0342 240.595 21.0342Z" fill="white"/>
<path d="M192.564 0.456299V0.836527C192.564 1.38025 195.196 0.547531 195.196 3.85552V18.2243C195.196 21.5475 192.564 20.6996 192.564 21.2433V21.6236C195.366 21.4811 198.174 21.4811 200.976 21.6236V21.2433C200.976 20.6996 198.372 21.5818 198.372 18.2243L198.341 3.85552C198.341 0.555136 200.976 1.38025 200.976 0.836527V0.456299C198.174 0.597294 195.367 0.597294 192.564 0.456299Z" fill="white"/>
<path d="M225.431 17.7681L225.046 3.80237C225.046 0.981076 228.078 1.21678 228.109 0.821347V0.460148C228.109 0.460148 224.664 0.608437 222.283 0.460148C222.098 2.61984 216.179 17.3043 216.179 17.3043C216.179 17.3043 208.948 0.981072 208.921 0.471566C207.133 0.582369 205.34 0.574725 203.554 0.44873V0.828959C203.554 1.31185 206.255 1.0039 206.289 3.81759C206.264 8.52946 205.988 13.2367 205.464 17.9202C205.078 21.4905 202.631 20.5096 202.631 21.2054V21.5476C204.817 21.4395 207.006 21.4395 209.191 21.5476V21.2054C209.191 20.5096 206.586 21.4449 206.563 17.6655C206.54 13.886 206.995 6.82897 207.285 5.49817C207.937 7.09893 214.068 19.7149 214.419 21.4449H215.341C215.384 20.7605 215.777 19.2814 216.885 18.7149C216.773 18.1103 218.868 11.8974 222.036 5.49817C222.036 5.49817 222.391 14.0609 222.279 17.7643C222.175 21.1864 219.655 20.4716 219.655 21.1864V21.5362C219.655 21.5362 223.236 21.3727 228.472 21.5362V21.194C228.48 20.5096 225.431 21.2092 225.431 17.7681Z" fill="white"/>
<path d="M255.833 9.82896C252.769 7.5666 250.504 6.44866 250.504 4.33459C250.504 1.76044 252.125 0.631171 253.903 0.631171C258.318 0.631171 257.612 4.36504 258.225 4.36504H258.53V1.03804C258.542 0.965821 258.527 0.891693 258.487 0.829918C258.447 0.768144 258.385 0.723135 258.314 0.703485C256.922 0.301181 255.477 0.108886 254.027 0.133142C250.504 0.133142 247.44 2.27375 247.44 4.99238C247.44 8.28135 249.462 9.67305 251.114 10.7567C255.713 13.7453 256.813 15.1369 256.813 17.0989C256.813 19.9772 254.999 21.4791 252.823 21.4791C248.012 21.4791 248.05 16.2548 247.44 16.2548H247.132V20.6008C247.132 20.8403 250.624 21.9887 252.588 21.9887C256.261 21.9887 260 19.9962 260 16.403C260 13.9049 259.082 12.2168 255.833 9.82896Z" fill="white"/>
<path d="M189.817 0.376426C189.489 0.589353 185.843 0.726236 182.274 0.756654C178.705 0.787072 175.07 0.596958 174.742 0.376426C173.53 -0.406844 173.584 0.269951 173.584 0.269951C173.584 0.269951 173.446 5.04558 173.33 5.55889H173.839C174.483 5.55889 174.576 1.37638 178.469 1.37638L180.607 1.42967V17.8251C180.607 21.7946 177.972 20.6311 177.972 21.2471V21.6273C180.848 21.4217 183.735 21.4217 186.611 21.6273C186.62 21.5008 186.62 21.3737 186.611 21.2471C186.611 20.6425 183.976 21.806 183.976 17.8251V1.41825L186.117 1.36506C189.999 1.36506 189.52 5.54757 190.165 5.54757H190.678C190.558 5.03426 190.99 0.258533 190.99 0.258533C190.99 0.258533 191.029 -0.406844 189.817 0.376426Z" fill="white"/>
<path d="M51.1874 21.0721C48.4286 21.0721 46.4762 20.4029 46.4762 17.8363V10.1063H50.1766C52.2294 10.1063 51.8242 12.9466 52.3181 12.9466H52.5342V6.51312H52.3181C51.828 6.51312 52.1059 9.14055 50.1766 9.14055H46.4762V1.07974C46.4762 1.07974 49.6787 0.828699 51.936 1.18231C54.1932 1.53592 53.545 5.30782 54.7411 5.30782H54.8338C54.8338 5.30782 54.8338 1.01123 54.8338 0.444691C54.8338 -0.121849 54.3438 0.349634 53.5644 0.444691C53.2209 0.596783 42.5907 0.547353 40.3065 0.444691C40.3323 0.649787 40.4259 0.840891 40.5727 0.988484C40.7386 1.12156 43.1887 0.608201 43.1887 3.40288V18.5512C43.1887 21.3611 40.291 20.3839 40.291 21.2128C40.291 21.2128 40.291 21.38 40.291 21.5359C42.0505 21.2013 54.4479 21.6919 55.1424 21.4067C55.837 21.1215 56.7284 16.1291 56.7284 16.1291H56.3887C55.3199 16.1443 55.6286 21.0721 51.1874 21.0721Z" fill="white"/>
<path d="M36.6601 17.6577V4.12918C36.6601 0.171007 39.2841 1.31172 39.2841 0.832634C39.2903 0.712306 39.2903 0.591763 39.2841 0.471436C35.0975 0.691968 30.7953 0.471436 30.7953 0.471436V0.832634C30.7953 1.31172 33.419 0.171011 33.419 4.22805V9.12163C33.419 9.12163 29.9077 9.19765 28.4029 9.19765C26.8981 9.19765 24.0042 9.12163 24.0042 9.12163V4.22805C24.0042 0.171011 26.6279 1.31172 26.6279 0.832634C26.6279 0.832634 26.6279 0.593109 26.6279 0.471436C21.8665 0.680561 18.116 0.471436 18.116 0.471436V0.832634C18.116 1.31172 20.7399 0.171011 20.7399 4.22805V17.768C20.7399 21.8288 18.116 20.4296 18.116 21.1901V21.5133C18.116 21.5133 20.8864 21.346 26.6279 21.5133C26.6279 21.4144 26.6279 21.1863 26.6279 21.1863C26.6279 20.403 24.008 21.8136 24.008 17.7642V10.0874C24.008 10.0874 26.138 9.99998 28.3296 9.99998C30.5213 9.99998 33.4344 10.0874 33.4344 10.0874V17.768C33.4344 21.8288 30.8105 20.4296 30.8105 21.1901V21.5133C30.8105 21.5133 33.7623 21.3764 39.2993 21.5133C39.2993 21.3422 39.2993 21.1901 39.2993 21.1901C39.2839 20.4296 36.6601 21.8174 36.6601 17.6577Z" fill="white"/>
<path d="M16.4973 0.375205C16.1732 0.588133 12.523 0.725015 8.9577 0.755433C5.39241 0.785851 1.74994 0.595737 1.42582 0.375205C0.214238 -0.408065 0.268258 0.26873 0.268258 0.26873C0.268258 0.26873 0.12938 5.04436 0.00976562 5.55767H0.5113C1.15568 5.55767 1.24828 1.37516 5.14155 1.37516L7.28296 1.42844V17.8238C7.28296 21.7934 4.65151 20.6299 4.65151 21.2459V21.6261C7.52748 21.4204 10.4149 21.4204 13.2908 21.6261C13.3002 21.4995 13.3002 21.3725 13.2908 21.2459C13.2908 20.6413 10.6554 21.8048 10.6554 17.8238V1.41703L12.7968 1.36384C16.6747 1.36384 16.2002 5.54634 16.8445 5.54634H17.3538C17.238 5.03304 17.6664 0.257312 17.6664 0.257312C17.6664 0.257312 17.7089 -0.408065 16.4973 0.375205Z" fill="white"/>
<path d="M77.09 21.042C74.335 21.042 72.3785 20.3728 72.3785 17.8062V10.0762H76.079C78.1318 10.0762 77.7305 12.9165 78.2244 12.9165H78.4365V6.48303H78.2244C77.7344 6.48303 78.0083 9.11038 76.079 9.11038H72.3785V1.03814C72.3785 1.03814 75.5812 0.787196 77.8423 1.14081C80.1034 1.49442 79.4513 5.26632 80.6475 5.26632H80.7362C80.7362 5.26632 80.7362 0.969727 80.7362 0.403187C80.7362 -0.163353 80.2463 0.30813 79.4707 0.403187C79.1273 0.555279 68.493 0.505849 66.2126 0.403187C66.2371 0.607892 66.3294 0.798931 66.4751 0.946888C66.641 1.07997 69.095 0.566697 69.095 3.36137V18.5286C69.095 21.3385 66.1934 20.3613 66.1934 21.1902V21.5135C67.9567 21.1789 80.3543 21.6693 81.045 21.3842C81.7357 21.099 82.6308 16.1065 82.6308 16.1065H82.3105C81.2263 16.1141 81.5389 21.042 77.09 21.042Z" fill="white"/>
<path d="M111.408 0.0683594C104.412 0.0683594 100.048 6.01899 100.048 11.3498C100.048 16.9125 104.08 21.9962 110.813 21.9962C117.844 21.9962 122.482 16.0456 122.482 10.6806C122.482 5.14066 118.172 0.0683594 111.408 0.0683594ZM111.573 21.384C107.916 21.384 103.602 17.4981 103.602 10.2775C103.602 4.32695 106.982 0.737564 110.628 0.737564C114.873 0.737564 118.92 4.53984 118.92 11.7642C118.92 17.7262 115.934 21.384 111.573 21.384Z" fill="white"/>
<path d="M139.617 21.0799C140.48 20.712 141.364 20.3946 142.264 20.1293C142.712 18.692 142.723 15.8403 142.723 15.8403H142.388C141.068 15.8403 142.693 21.1255 135.74 21.1635C131.021 21.1901 128.343 17.9468 127.671 13.5818C127.529 12.5933 127.471 11.5949 127.498 10.5969C127.528 5.16349 130.253 0.783266 135.74 0.813685C142.685 0.844103 141.068 6.13688 142.388 6.13688H142.723C142.723 6.13688 142.631 3.5019 142.723 2.24335C142.816 0.984791 142.7 0.661653 141.527 1.06469C139.984 1.61222 138.977 0.0723177 135.983 0.0380971C127.745 -0.0531576 123.728 6.19777 123.728 10.848C123.728 10.9468 123.728 11.0419 123.728 11.1407C123.728 11.3803 123.763 11.6236 123.763 11.8707C123.763 17.0837 128.956 22.0266 135.983 21.9506C137.241 21.9116 138.478 21.6191 139.617 21.0913V21.0799Z" fill="white"/>
<path d="M99.315 6.10279C99.5543 2.38796 97.108 1.12556 95.6147 0.737731C95.4565 0.692104 95.2984 0.657868 95.1479 0.62745C93.7497 0.48368 92.3437 0.425282 90.9382 0.45256C86.4623 0.45256 84.2591 0.501989 83.252 0.45256C83.264 0.573536 83.2873 0.693151 83.3215 0.809952C83.6688 1.57041 85.9761 0.14078 85.9839 3.59705L86.0148 18.3993C86.0148 21.502 83.3138 20.6236 83.3138 21.1484V21.5286C83.3138 21.5286 87.2533 21.3271 92.0147 21.5286V21.1484C92.0147 20.7035 89.3793 21.5058 89.3793 18.3993V14.1941C94.596 14.7948 98.9523 11.772 99.315 6.10279ZM93.3266 13.1484C92.1381 13.5287 89.935 13.3233 89.634 13.1028C89.4488 12.9659 89.3986 12.2739 89.387 11.772V1.01529C90.0034 0.950691 90.6234 0.926579 91.243 0.943069C94.6694 0.969685 96.0777 3.50205 96.124 6.50205C96.2012 10.4564 94.8391 12.5781 93.3266 13.1484Z" fill="white"/>
<path d="M162.144 17.6577V4.12918C162.144 0.171007 164.767 1.31172 164.767 0.832634C164.774 0.712306 164.774 0.591763 164.767 0.471436C160.581 0.691968 156.279 0.471436 156.279 0.471436V0.832634C156.279 1.31172 158.902 0.171011 158.902 4.22805V9.12163C158.902 9.12163 155.391 9.19765 153.886 9.19765C152.381 9.19765 149.488 9.12163 149.488 9.12163V4.22805C149.488 0.171011 152.111 1.31172 152.111 0.832634C152.111 0.832634 152.111 0.593109 152.111 0.471436C147.35 0.680561 143.599 0.471436 143.599 0.471436V0.832634C143.599 1.31172 146.223 0.171011 146.223 4.22805V17.768C146.223 21.8288 143.599 20.4296 143.599 21.1901V21.5133C143.599 21.5133 146.37 21.346 152.111 21.5133C152.111 21.4144 152.111 21.1863 152.111 21.1863C152.111 20.403 149.491 21.8136 149.491 17.7642V10.0874C149.491 10.0874 151.621 9.99998 153.813 9.99998C156.005 9.99998 158.918 10.0874 158.918 10.0874V17.768C158.918 21.8288 156.294 20.4296 156.294 21.1901V21.5133C156.294 21.5133 159.246 21.3764 164.783 21.5133C164.783 21.3422 164.783 21.1901 164.783 21.1901C164.767 20.4296 162.144 21.8174 162.144 17.6577Z" fill="white"/>
</g>
<defs>
<clipPath id="clip0_109_4566">
<rect width="260" height="22" fill="white"/>
</clipPath>
</defs>
</svg>
